<?xml version="1.0" encoding="UTF-8"?>
<svg version="1.1" xmlns="http://www.w3.org/2000/svg" width="1080" height="1080">
<path d="M0 0 C356.4 0 712.8 0 1080 0 C1080 356.4 1080 712.8 1080 1080 C723.6 1080 367.2 1080 0 1080 C0 723.6 0 367.2 0 0 Z " fill="#030303" transform="translate(0,0)"/>
<path d="M0 0 C0.7616748 -0.01261871 1.52334961 -0.02523743 2.30810547 -0.03823853 C35.37142877 -0.47895424 66.64694523 4.87074104 95.8203125 21.2734375 C96.43632324 21.60923828 97.05233398 21.94503906 97.68701172 22.29101562 C108.36396007 28.13851033 117.55550429 35.41989359 126.8203125 43.2734375 C128.81761112 44.94337242 130.81903184 46.60827331 132.8203125 48.2734375 C131.40512157 51.49119697 129.70949268 53.62406751 127.21606445 56.08886719 C126.47802078 56.8235321 125.73997711 57.55819702 124.97956848 58.31512451 C124.18064682 59.10058655 123.38172516 59.88604858 122.55859375 60.6953125 C121.73457565 61.51412903 120.91055756 62.33294556 120.06156921 63.17657471 C117.42334776 65.79698287 114.77856426 68.41063438 112.1328125 71.0234375 C109.50574181 73.62276848 106.88018201 76.22357938 104.25761414 78.82745361 C102.62648526 80.44646262 100.99269135 82.06279267 99.35578918 83.67596436 C95.89323821 87.10851601 92.5173147 90.55814377 89.33666992 94.25488281 C85.33072589 98.9100486 80.99566041 103.20491085 76.6328125 107.5234375 C75.34080933 108.80976074 75.34080933 108.80976074 74.02270508 110.12207031 C70.37017267 113.75838689 66.71167615 117.38868121 63.05371094 121.01953125 C60.36966094 123.68541347 57.68868009 126.3543556 55.0078125 129.0234375 C54.19094971 129.83200195 53.37408691 130.64056641 52.5324707 131.47363281 C48.38254483 135.60593235 44.42917571 139.8202886 40.61035156 144.25854492 C37.1932857 148.10484124 33.50727981 151.68712969 29.8515625 155.3046875 C28.59285339 156.55771667 28.59285339 156.55771667 27.30871582 157.83605957 C23.7517673 161.37679879 20.1888513 164.91151074 16.62646484 168.44677734 C14.01191086 171.0431581 11.40043066 173.64260316 8.7890625 176.2421875 C7.99407349 177.02887817 7.19908447 177.81556885 6.38000488 178.62609863 C2.91183437 182.07914926 -0.47330127 185.54917719 -3.66601562 189.25976562 C-7.67157192 193.91266715 -12.00573414 198.20629124 -16.3671875 202.5234375 C-17.65919067 203.80976074 -17.65919067 203.80976074 -18.97729492 205.12207031 C-22.62982733 208.75838689 -26.28832385 212.38868121 -29.94628906 216.01953125 C-32.63033906 218.68541347 -35.31131991 221.3543556 -37.9921875 224.0234375 C-38.80905029 224.83200195 -39.62591309 225.64056641 -40.4675293 226.47363281 C-44.61745517 230.60593235 -48.57082429 234.8202886 -52.38964844 239.25854492 C-55.8067143 243.10484124 -59.49272019 246.68712969 -63.1484375 250.3046875 C-64.40714661 251.55771667 -64.40714661 251.55771667 -65.69128418 252.83605957 C-69.2482327 256.37679879 -72.8111487 259.91151074 -76.37353516 263.44677734 C-78.98808914 266.0431581 -81.59956934 268.64260316 -84.2109375 271.2421875 C-85.00592651 272.02887817 -85.80091553 272.81556885 -86.61999512 273.62609863 C-90.82004652 277.80783943 -94.85218565 282.06736502 -98.70472717 286.5723877 C-100.73653643 288.91564309 -102.90792176 291.09816046 -105.1171875 293.2734375 C-105.88933594 294.0365625 -106.66148437 294.7996875 -107.45703125 295.5859375 C-108.02550781 296.1428125 -108.59398437 296.6996875 -109.1796875 297.2734375 C-139.7918033 273.4640141 -156.2029366 230.71799142 -161.37109375 193.6875 C-163.53106178 175.69949266 -162.72721364 158.01106819 -159.1796875 140.2734375 C-158.97085937 139.18675781 -158.97085937 139.18675781 -158.7578125 138.078125 C-153.23391471 109.94716405 -140.13488181 82.802794 -121.1796875 61.2734375 C-120.43847656 60.42265625 -119.69726562 59.571875 -118.93359375 58.6953125 C-116.71533777 56.18872169 -114.45861866 53.72489338 -112.1796875 51.2734375 C-111.53 50.55800781 -110.8803125 49.84257812 -110.2109375 49.10546875 C-88.80568397 26.5064607 -58.52792665 11.09003173 -28.4921875 4.0859375 C-27.41646484 3.82619141 -26.34074219 3.56644531 -25.23242188 3.29882812 C-16.79480003 1.29922025 -8.67386774 0.13200975 0 0 Z " fill="#FEFEFE" transform="translate(564.1796875,300.7265625)"/>
<path d="M0 0 C3.96400498 1.82771803 6.58196276 4.37410606 9.5 7.5625 C10.02118408 8.13186279 10.54236816 8.70122559 11.0793457 9.2878418 C41.48303134 43.31242534 55.99699575 88.31050728 54.22021484 133.5703125 C52.50834629 160.23143161 44.67336348 185.60167103 32 209 C31.66129883 209.6276123 31.32259766 210.25522461 30.97363281 210.90185547 C10.6121601 248.03785579 -24.36411554 275.1725659 -64 289 C-64.72106934 289.25362305 -65.44213867 289.50724609 -66.18505859 289.76855469 C-94.39655395 299.45339048 -128.93060015 300.66960256 -158 294 C-158.7317041 293.83902832 -159.4634082 293.67805664 -160.21728516 293.51220703 C-190.03419838 286.74538631 -217.1112142 271.08699877 -239 250 C-237.57947492 245.39233893 -234.97546823 242.59485455 -231.58203125 239.32421875 C-231.04656174 238.79536575 -230.51109222 238.26651276 -229.95939636 237.72163391 C-228.2507539 236.03629951 -226.53229454 234.36144623 -224.8125 232.6875 C-222.56518506 230.48694408 -220.32223066 228.28201695 -218.08203125 226.07421875 C-217.53938629 225.54025482 -216.99674133 225.00629089 -216.43765259 224.45614624 C-213.02434787 221.07660865 -209.81372176 217.58988872 -206.7019043 213.92895508 C-202.40942199 209.06381339 -197.64916024 204.61520826 -193.02734375 200.06640625 C-189.40701013 196.48093941 -185.84892946 192.90058108 -182.53125 189.03125 C-177.49390761 183.1631264 -171.88827496 177.84516638 -166.3828125 172.421875 C-162.63458062 168.70782153 -158.93586363 165.00716648 -155.5 161 C-150.47574519 155.14033045 -144.87758088 149.83463192 -139.3828125 144.421875 C-135.63458062 140.70782153 -131.93586363 137.00716648 -128.5 133 C-123.47574519 127.14033045 -117.87758088 121.83463192 -112.3828125 116.421875 C-108.00714516 112.08610736 -103.80953594 107.69875327 -99.80078125 103.0234375 C-95.45582451 98.14125184 -90.68329623 93.64880498 -86.02734375 89.06640625 C-82.40701013 85.48093941 -78.84892946 81.90058108 -75.53125 78.03125 C-70.49390761 72.1631264 -64.88827496 66.84516638 -59.3828125 61.421875 C-55.63458062 57.70782153 -51.93586363 54.00716648 -48.5 50 C-43.47574519 44.14033045 -37.87758088 38.83463192 -32.3828125 33.421875 C-28.00811693 29.08707027 -23.80814846 24.70180354 -19.80029297 20.02734375 C-16.23458562 16.01193368 -12.37823631 12.27576486 -8.5625 8.5 C-7.73556641 7.67757813 -6.90863281 6.85515625 -6.05664062 6.0078125 C-4.04005041 4.00287887 -2.02114764 2.00033747 0 0 Z " fill="#FEFEFE" transform="translate(623,481)"/>
</svg>
